<svg width="411" height="372" viewBox="0 0 411 372" fill="none" xmlns="http://www.w3.org/2000/svg">
<path d="M148.632 37.0959C173.653 79.2585 237.496 166.414 292.697 177.735C353.787 179.272 457.78 209.027 385.029 315.753C332.355 393.026 102.307 417.519 12.0543 204.205C-5.38014 149.752 -15.4025 36.343 78.0668 3.12167C79.4687 2.6234 80.894 2.39337 82.3428 2.10981L84.7676 1.536C87.2121 1.3987 90.0512 0.773652 93.1527 0.932602C111.709 1.88365 139.654 9.30007 148.632 37.0959Z" fill="#7A4BEF"/>
<path d="M148.632 37.0959L148.156 37.2495L148.173 37.3029L148.202 37.351L148.632 37.0959ZM292.697 177.735L292.596 178.225L292.64 178.234L292.684 178.235L292.697 177.735ZM385.029 315.753L385.442 316.035L385.029 315.753ZM12.0543 204.205L11.5781 204.358L11.585 204.379L11.5938 204.4L12.0543 204.205ZM78.0668 3.12167L77.8994 2.65055L78.0668 3.12167ZM84.7676 1.536L84.7396 1.03678L84.6954 1.03926L84.6524 1.04944L84.7676 1.536ZM93.1527 0.932602L93.1783 0.433256L93.1527 0.932602ZM148.202 37.351C160.726 58.4558 182.962 90.814 208.978 119.318C221.986 133.571 235.947 146.869 250.121 157.316C264.29 167.76 278.698 175.374 292.596 178.225L292.797 177.245C279.095 174.435 264.823 166.91 250.714 156.511C236.61 146.114 222.697 132.866 209.716 118.644C183.755 90.1993 161.558 57.8985 149.062 36.8407L148.202 37.351ZM292.684 178.235C307.923 178.618 325.837 180.762 342.996 185.423C360.159 190.085 376.535 197.258 388.729 207.678C400.91 218.088 408.916 231.735 409.385 249.392C409.854 267.07 402.771 288.838 384.616 315.472L385.442 316.035C403.662 289.306 410.862 267.332 410.385 249.366C409.907 231.379 401.737 217.48 389.378 206.918C377.031 196.367 360.501 189.142 343.258 184.458C326.01 179.772 308.015 177.62 292.709 177.235L292.684 178.235ZM384.616 315.472C371.53 334.668 347.387 350.636 317.068 360.445C286.757 370.25 250.32 373.884 212.705 368.454C137.493 357.596 57.5699 310.499 12.5148 204.01L11.5938 204.4C56.7914 311.225 137.019 358.538 212.562 369.444C250.325 374.896 286.917 371.25 317.375 361.396C347.825 351.546 372.191 335.475 385.442 316.035L384.616 315.472ZM12.5305 204.053C3.83012 176.879 -3.01663 134.998 3.96391 95.789C10.9407 56.601 31.7145 20.1271 78.2343 3.5928L77.8994 2.65055C30.9498 19.3376 10.0002 56.1786 2.97939 95.6137C-4.03762 135.028 2.84401 177.078 11.5781 204.358L12.5305 204.053ZM78.2343 3.5928C79.5915 3.11042 80.9672 2.88852 82.4388 2.6005L82.2467 1.61912C80.8207 1.89822 79.346 2.13638 77.8994 2.65055L78.2343 3.5928ZM82.4388 2.6005C83.2445 2.4428 84.0717 2.26599 84.9109 2.01503L84.6243 1.05697C83.8324 1.2938 83.0431 1.46326 82.2467 1.61912L82.4388 2.6005ZM84.6524 1.04944L82.2276 1.62325L82.4579 2.59637L84.8827 2.02256L84.6524 1.04944ZM82.2276 1.62325L77.9517 2.63511L78.182 3.60824L82.4579 2.59637L82.2276 1.62325ZM84.7956 2.03522C86.0352 1.96559 87.3897 1.7711 88.7682 1.62024C90.162 1.46768 91.6162 1.35451 93.1271 1.43195L93.1783 0.433256C91.5878 0.351742 90.0716 0.47162 88.6594 0.626177C87.2318 0.782422 85.9445 0.969108 84.7396 1.03678L84.7956 2.03522ZM93.1271 1.43195C111.633 2.38043 139.28 9.76742 148.156 37.2495L149.107 36.9422C140.029 8.83271 111.785 1.38687 93.1783 0.433256L93.1271 1.43195Z" fill="#FDC221"/>
</svg>
