<svg width="266" height="172" viewBox="0 0 266 172" fill="none" xmlns="http://www.w3.org/2000/svg">
<circle cx="3.6902" cy="3.27857" r="3.00929" fill="#7A4BEF"/>
<circle cx="3.69032" cy="97.5696" r="3.00929" fill="#7A4BEF"/>
<circle cx="3.69032" cy="50.424" r="3.00929" fill="#7A4BEF"/>
<circle cx="3.69032" cy="144.715" r="3.00929" fill="#7A4BEF"/>
<circle cx="3.69032" cy="26.8511" r="3.00929" fill="#7A4BEF"/>
<circle cx="3.69032" cy="121.142" r="3.00929" fill="#7A4BEF"/>
<circle cx="3.69032" cy="73.9972" r="3.00929" fill="#7A4BEF"/>
<circle cx="3.69032" cy="168.288" r="3.00929" fill="#7A4BEF"/>
<circle cx="145.127" cy="3.27876" r="3.00929" fill="#7A4BEF"/>
<circle cx="145.127" cy="97.5696" r="3.00929" fill="#7A4BEF"/>
<circle cx="145.127" cy="50.424" r="3.00929" fill="#7A4BEF"/>
<circle cx="145.127" cy="144.715" r="3.00929" fill="#7A4BEF"/>
<circle cx="145.127" cy="26.8511" r="3.00929" fill="#7A4BEF"/>
<circle cx="145.127" cy="121.142" r="3.00929" fill="#7A4BEF"/>
<circle cx="145.127" cy="73.9972" r="3.00929" fill="#7A4BEF"/>
<circle cx="145.127" cy="168.288" r="3.00929" fill="#7A4BEF"/>
<circle cx="74.4088" cy="3.27876" r="3.00929" fill="#7A4BEF"/>
<circle cx="74.4088" cy="97.5696" r="3.00929" fill="#7A4BEF"/>
<circle cx="74.4088" cy="50.424" r="3.00929" fill="#7A4BEF"/>
<circle cx="74.4088" cy="144.715" r="3.00929" fill="#7A4BEF"/>
<circle cx="74.4088" cy="26.8511" r="3.00929" fill="#7A4BEF"/>
<circle cx="74.4088" cy="121.142" r="3.00929" fill="#7A4BEF"/>
<circle cx="74.4088" cy="73.9972" r="3.00929" fill="#7A4BEF"/>
<circle cx="74.4088" cy="168.288" r="3.00929" fill="#7A4BEF"/>
<circle cx="215.845" cy="3.27876" r="3.00929" fill="#7A4BEF"/>
<circle cx="215.845" cy="97.5696" r="3.00929" fill="#7A4BEF"/>
<circle cx="215.845" cy="50.424" r="3.00929" fill="#7A4BEF"/>
<circle cx="215.845" cy="144.715" r="3.00929" fill="#7A4BEF"/>
<circle cx="215.845" cy="26.8511" r="3.00929" fill="#7A4BEF"/>
<circle cx="215.845" cy="121.142" r="3.00929" fill="#7A4BEF"/>
<circle cx="215.845" cy="73.9972" r="3.00929" fill="#7A4BEF"/>
<circle cx="215.845" cy="168.288" r="3.00929" fill="#7A4BEF"/>
<circle cx="27.2631" cy="3.27876" r="3.00929" fill="#7A4BEF"/>
<circle cx="27.2631" cy="97.5696" r="3.00929" fill="#7A4BEF"/>
<circle cx="27.2631" cy="50.424" r="3.00929" fill="#7A4BEF"/>
<circle cx="27.2631" cy="144.715" r="3.00929" fill="#7A4BEF"/>
<circle cx="27.2631" cy="26.8511" r="3.00929" fill="#7A4BEF"/>
<circle cx="27.2631" cy="121.142" r="3.00929" fill="#7A4BEF"/>
<circle cx="27.2631" cy="73.9972" r="3.00929" fill="#7A4BEF"/>
<circle cx="27.2631" cy="168.288" r="3.00929" fill="#7A4BEF"/>
<circle cx="168.7" cy="3.27876" r="3.00929" fill="#7A4BEF"/>
<circle cx="168.7" cy="97.5696" r="3.00929" fill="#7A4BEF"/>
<circle cx="168.7" cy="50.424" r="3.00929" fill="#7A4BEF"/>
<circle cx="168.7" cy="144.715" r="3.00929" fill="#7A4BEF"/>
<circle cx="168.7" cy="26.8511" r="3.00929" fill="#7A4BEF"/>
<circle cx="168.7" cy="121.142" r="3.00929" fill="#7A4BEF"/>
<circle cx="168.7" cy="73.9972" r="3.00929" fill="#7A4BEF"/>
<circle cx="168.7" cy="168.288" r="3.00929" fill="#7A4BEF"/>
<circle cx="97.9815" cy="3.27876" r="3.00929" fill="#7A4BEF"/>
<circle cx="97.9815" cy="97.5696" r="3.00929" fill="#7A4BEF"/>
<circle cx="97.9815" cy="50.424" r="3.00929" fill="#7A4BEF"/>
<circle cx="97.9815" cy="144.715" r="3.00929" fill="#7A4BEF"/>
<circle cx="97.9815" cy="26.8511" r="3.00929" fill="#7A4BEF"/>
<circle cx="97.9815" cy="121.142" r="3.00929" fill="#7A4BEF"/>
<circle cx="97.9815" cy="73.9972" r="3.00929" fill="#7A4BEF"/>
<circle cx="97.9815" cy="168.288" r="3.00929" fill="#7A4BEF"/>
<circle cx="239.418" cy="3.27876" r="3.00929" fill="#7A4BEF"/>
<circle cx="239.418" cy="97.5696" r="3.00929" fill="#7A4BEF"/>
<circle cx="239.418" cy="50.424" r="3.00929" fill="#7A4BEF"/>
<circle cx="239.418" cy="144.715" r="3.00929" fill="#7A4BEF"/>
<circle cx="239.418" cy="26.8511" r="3.00929" fill="#7A4BEF"/>
<circle cx="239.418" cy="121.142" r="3.00929" fill="#7A4BEF"/>
<circle cx="239.418" cy="73.9972" r="3.00929" fill="#7A4BEF"/>
<circle cx="239.418" cy="168.288" r="3.00929" fill="#7A4BEF"/>
<circle cx="50.8361" cy="3.27876" r="3.00929" fill="#7A4BEF"/>
<circle cx="50.8361" cy="97.5696" r="3.00929" fill="#7A4BEF"/>
<circle cx="50.8361" cy="50.424" r="3.00929" fill="#7A4BEF"/>
<circle cx="50.8361" cy="144.715" r="3.00929" fill="#7A4BEF"/>
<circle cx="50.8361" cy="26.8511" r="3.00929" fill="#7A4BEF"/>
<circle cx="50.8361" cy="121.142" r="3.00929" fill="#7A4BEF"/>
<circle cx="50.8361" cy="73.9972" r="3.00929" fill="#7A4BEF"/>
<circle cx="50.8361" cy="168.288" r="3.00929" fill="#7A4BEF"/>
<circle cx="192.272" cy="3.27876" r="3.00929" fill="#7A4BEF"/>
<circle cx="192.272" cy="97.5696" r="3.00929" fill="#7A4BEF"/>
<circle cx="192.272" cy="50.424" r="3.00929" fill="#7A4BEF"/>
<circle cx="192.272" cy="144.715" r="3.00929" fill="#7A4BEF"/>
<circle cx="192.272" cy="26.8511" r="3.00929" fill="#7A4BEF"/>
<circle cx="192.272" cy="121.142" r="3.00929" fill="#7A4BEF"/>
<circle cx="192.272" cy="73.9972" r="3.00929" fill="#7A4BEF"/>
<circle cx="192.272" cy="168.288" r="3.00929" fill="#7A4BEF"/>
<circle cx="121.554" cy="3.27876" r="3.00929" fill="#7A4BEF"/>
<circle cx="121.554" cy="97.5696" r="3.00929" fill="#7A4BEF"/>
<circle cx="121.554" cy="50.424" r="3.00929" fill="#7A4BEF"/>
<circle cx="121.554" cy="144.715" r="3.00929" fill="#7A4BEF"/>
<circle cx="121.554" cy="26.8511" r="3.00929" fill="#7A4BEF"/>
<circle cx="121.554" cy="121.142" r="3.00929" fill="#7A4BEF"/>
<circle cx="121.554" cy="73.9972" r="3.00929" fill="#7A4BEF"/>
<circle cx="121.554" cy="168.288" r="3.00929" fill="#7A4BEF"/>
<circle cx="262.991" cy="3.27876" r="3.00929" fill="#7A4BEF"/>
<circle cx="262.991" cy="97.5696" r="3.00929" fill="#7A4BEF"/>
<circle cx="262.991" cy="50.424" r="3.00929" fill="#7A4BEF"/>
<circle cx="262.991" cy="144.715" r="3.00929" fill="#7A4BEF"/>
<circle cx="262.991" cy="26.8511" r="3.00929" fill="#7A4BEF"/>
<circle cx="262.991" cy="121.142" r="3.00929" fill="#7A4BEF"/>
<circle cx="262.991" cy="73.9972" r="3.00929" fill="#7A4BEF"/>
<circle cx="262.991" cy="168.288" r="3.00929" fill="#7A4BEF"/>
</svg>
