<svg width="504" height="151" viewBox="0 0 504 151" fill="none" xmlns="http://www.w3.org/2000/svg">
<path d="M5.296 52.576C2.128 52.576 0.544001 50.944 0.544001 47.68V6.136C0.544001 2.872 2.176 1.24 5.44 1.24H30.568C33.064 1.24 34.312 2.44 34.312 4.84C34.312 7.336 33.064 8.584 30.568 8.584H9.76V22.912H29.056C31.552 22.912 32.8 24.112 32.8 26.512C32.8 29.008 31.552 30.256 29.056 30.256H9.76V47.68C9.76 50.944 8.272 52.576 5.296 52.576ZM45.9565 9.592C44.2765 9.592 42.9565 9.184 41.9965 8.368C41.0845 7.504 40.6285 6.328 40.6285 4.84C40.6285 3.304 41.0845 2.128 41.9965 1.312C42.9565 0.495998 44.2765 0.0879989 45.9565 0.0879989C49.5085 0.0879989 51.2845 1.672 51.2845 4.84C51.2845 8.008 49.5085 9.592 45.9565 9.592ZM45.9565 52.504C44.5165 52.504 43.4125 52.072 42.6445 51.208C41.8765 50.344 41.4925 49.144 41.4925 47.608V21.184C41.4925 17.92 42.9805 16.288 45.9565 16.288C48.9805 16.288 50.4925 17.92 50.4925 21.184V47.608C50.4925 49.144 50.1085 50.344 49.3405 51.208C48.5725 52.072 47.4445 52.504 45.9565 52.504ZM62.8081 52.576C59.8321 52.576 58.3441 51.04 58.3441 47.968V20.752C58.3441 17.728 59.8081 16.216 62.7361 16.216C65.6641 16.216 67.1281 17.728 67.1281 20.752V22.264C68.3281 20.248 69.9361 18.712 71.9521 17.656C74.0161 16.6 76.3201 16.072 78.8641 16.072C87.1681 16.072 91.3201 20.896 91.3201 30.544V47.968C91.3201 51.04 89.8321 52.576 86.8561 52.576C83.8321 52.576 82.3201 51.04 82.3201 47.968V30.976C82.3201 28.24 81.7921 26.248 80.7361 25C79.7281 23.752 78.1441 23.128 75.9841 23.128C73.3441 23.128 71.2321 23.968 69.6481 25.648C68.1121 27.28 67.3441 29.464 67.3441 32.2V47.968C67.3441 51.04 65.8321 52.576 62.8081 52.576ZM112.497 52.72C109.425 52.72 106.713 51.976 104.361 50.488C102.057 49 100.257 46.888 98.9613 44.152C97.6653 41.368 97.0173 38.104 97.0173 34.36C97.0173 30.568 97.6653 27.328 98.9613 24.64C100.257 21.904 102.057 19.792 104.361 18.304C106.713 16.816 109.425 16.072 112.497 16.072C114.993 16.072 117.249 16.624 119.265 17.728C121.281 18.832 122.793 20.296 123.801 22.12V5.2C123.801 2.176 125.289 0.663996 128.265 0.663996C131.289 0.663996 132.801 2.176 132.801 5.2V47.968C132.801 51.04 131.313 52.576 128.337 52.576C125.361 52.576 123.873 51.04 123.873 47.968V46.456C122.865 48.376 121.353 49.912 119.337 51.064C117.321 52.168 115.041 52.72 112.497 52.72ZM115.017 45.88C117.705 45.88 119.865 44.92 121.497 43C123.129 41.032 123.945 38.152 123.945 34.36C123.945 30.52 123.129 27.664 121.497 25.792C119.865 23.872 117.705 22.912 115.017 22.912C112.329 22.912 110.169 23.872 108.537 25.792C106.905 27.664 106.089 30.52 106.089 34.36C106.089 38.152 106.905 41.032 108.537 43C110.169 44.92 112.329 45.88 115.017 45.88ZM4.864 150.576C1.984 150.576 0.544001 149.088 0.544001 146.112V103.272C0.544001 101.784 0.904001 100.656 1.624 99.888C2.392 99.072 3.376 98.664 4.576 98.664C5.68 98.664 6.496 98.88 7.024 99.312C7.6 99.696 8.272 100.368 9.04 101.328L34.744 134.664V103.056C34.744 100.128 36.184 98.664 39.064 98.664C41.896 98.664 43.312 100.128 43.312 103.056V146.256C43.312 147.6 42.976 148.656 42.304 149.424C41.632 150.192 40.72 150.576 39.568 150.576C38.464 150.576 37.576 150.36 36.904 149.928C36.28 149.496 35.584 148.8 34.816 147.84L9.112 114.432V146.112C9.112 149.088 7.696 150.576 4.864 150.576ZM69.3914 150.72C65.4074 150.72 61.9754 149.976 59.0954 148.488C56.2154 147 53.9834 144.888 52.3994 142.152C50.8634 139.416 50.0954 136.176 50.0954 132.432C50.0954 128.784 50.8394 125.592 52.3274 122.856C53.8634 120.12 55.9514 117.984 58.5914 116.448C61.2794 114.864 64.3274 114.072 67.7354 114.072C72.7274 114.072 76.6634 115.656 79.5434 118.824C82.4714 121.992 83.9354 126.312 83.9354 131.784C83.9354 133.56 82.7834 134.448 80.4794 134.448H58.7354C59.4074 140.736 63.0074 143.88 69.5354 143.88C70.7834 143.88 72.1754 143.736 73.7114 143.448C75.2954 143.112 76.7834 142.56 78.1754 141.792C79.4234 141.072 80.4794 140.856 81.3434 141.144C82.2074 141.384 82.8074 141.888 83.1434 142.656C83.5274 143.424 83.5754 144.288 83.2874 145.248C83.0474 146.16 82.3754 146.952 81.2714 147.624C79.5914 148.68 77.6474 149.472 75.4394 150C73.2794 150.48 71.2634 150.72 69.3914 150.72ZM68.0954 120.192C65.4554 120.192 63.3194 121.008 61.6874 122.64C60.0554 124.272 59.0714 126.48 58.7354 129.264H76.4474C76.2554 126.336 75.4394 124.104 73.9994 122.568C72.6074 120.984 70.6394 120.192 68.0954 120.192ZM91.7999 150.36C90.7439 150.36 89.8559 150.072 89.1359 149.496C88.4639 148.872 88.1039 148.08 88.0559 147.12C88.0559 146.16 88.4639 145.152 89.2799 144.096L99.2159 131.856L89.9999 120.48C89.1359 119.424 88.7279 118.416 88.7759 117.456C88.8239 116.496 89.1839 115.728 89.8559 115.152C90.5759 114.528 91.4639 114.216 92.5199 114.216C93.6239 114.216 94.5359 114.408 95.2559 114.792C96.0239 115.176 96.7199 115.776 97.3439 116.592L104.4 125.664L111.528 116.592C112.2 115.776 112.896 115.176 113.616 114.792C114.336 114.408 115.224 114.216 116.28 114.216C117.384 114.216 118.272 114.528 118.944 115.152C119.616 115.776 119.952 116.568 119.952 117.528C120 118.488 119.592 119.496 118.728 120.552L109.512 131.856L119.52 144.096C120.384 145.104 120.792 146.088 120.744 147.048C120.696 148.008 120.312 148.8 119.592 149.424C118.92 150.048 118.032 150.36 116.928 150.36C115.008 150.36 113.424 149.568 112.176 147.984L104.328 138.12L96.5519 147.984C95.9279 148.752 95.2559 149.352 94.5359 149.784C93.8159 150.168 92.9039 150.36 91.7999 150.36ZM143.285 150.72C133.973 150.72 129.317 146.112 129.317 136.896V121.56H125.573C123.173 121.56 121.973 120.432 121.973 118.176C121.973 115.92 123.173 114.792 125.573 114.792H129.317V108.24C129.317 105.216 130.829 103.704 133.853 103.704C136.829 103.704 138.317 105.216 138.317 108.24V114.792H145.949C148.349 114.792 149.549 115.92 149.549 118.176C149.549 120.432 148.349 121.56 145.949 121.56H138.317V136.392C138.317 138.696 138.821 140.424 139.829 141.576C140.837 142.728 142.469 143.304 144.725 143.304C145.541 143.304 146.261 143.232 146.885 143.088C147.509 142.944 148.061 142.848 148.541 142.8C149.117 142.752 149.597 142.944 149.981 143.376C150.365 143.76 150.557 144.576 150.557 145.824C150.557 146.784 150.389 147.648 150.053 148.416C149.765 149.136 149.213 149.64 148.397 149.928C147.773 150.12 146.957 150.288 145.949 150.432C144.941 150.624 144.053 150.72 143.285 150.72Z" fill="black"/>
<path d="M176.248 52.576C173.176 52.576 171.64 50.968 171.64 47.752V28.672L156.232 7C155.608 6.136 155.32 5.224 155.368 4.264C155.464 3.256 155.872 2.416 156.592 1.744C157.312 1.024 158.32 0.663996 159.616 0.663996C161.488 0.663996 163.12 1.648 164.512 3.616L176.392 20.464L188.344 3.616C189.112 2.56 189.856 1.816 190.576 1.384C191.296 0.903997 192.184 0.663996 193.24 0.663996C195.112 0.663996 196.336 1.36 196.912 2.752C197.536 4.096 197.296 5.536 196.192 7.072L180.856 28.744V47.752C180.856 50.968 179.32 52.576 176.248 52.576ZM211.767 52.72C208.119 52.72 204.951 51.976 202.263 50.488C199.575 49 197.487 46.888 195.999 44.152C194.511 41.368 193.767 38.104 193.767 34.36C193.767 30.616 194.511 27.376 195.999 24.64C197.487 21.904 199.575 19.792 202.263 18.304C204.951 16.816 208.119 16.072 211.767 16.072C215.415 16.072 218.583 16.816 221.271 18.304C223.959 19.792 226.047 21.904 227.535 24.64C229.023 27.376 229.767 30.616 229.767 34.36C229.767 38.104 229.023 41.368 227.535 44.152C226.047 46.888 223.959 49 221.271 50.488C218.583 51.976 215.415 52.72 211.767 52.72ZM211.767 45.88C214.455 45.88 216.615 44.92 218.247 43C219.879 41.032 220.695 38.152 220.695 34.36C220.695 30.52 219.879 27.664 218.247 25.792C216.615 23.872 214.455 22.912 211.767 22.912C209.079 22.912 206.919 23.872 205.287 25.792C203.655 27.664 202.839 30.52 202.839 34.36C202.839 38.152 203.655 41.032 205.287 43C206.919 44.92 209.079 45.88 211.767 45.88ZM248.44 52.72C239.8 52.72 235.48 47.872 235.48 38.176V20.752C235.48 17.728 236.968 16.216 239.944 16.216C242.968 16.216 244.48 17.728 244.48 20.752V38.32C244.48 40.816 244.984 42.664 245.992 43.864C247 45.064 248.608 45.664 250.816 45.664C253.216 45.664 255.184 44.848 256.72 43.216C258.256 41.536 259.024 39.328 259.024 36.592V20.752C259.024 17.728 260.512 16.216 263.488 16.216C266.512 16.216 268.024 17.728 268.024 20.752V47.968C268.024 51.04 266.56 52.576 263.632 52.576C260.704 52.576 259.24 51.04 259.24 47.968V46.744C256.888 50.728 253.288 52.72 248.44 52.72ZM280.499 52.576C277.427 52.576 275.891 51.04 275.891 47.968V20.752C275.891 17.728 277.355 16.216 280.283 16.216C283.211 16.216 284.675 17.728 284.675 20.752V22.984C286.403 18.856 290.099 16.552 295.763 16.072C297.827 15.832 298.979 17.008 299.219 19.6C299.459 22.144 298.211 23.56 295.475 23.848L293.891 23.992C287.987 24.568 285.035 27.592 285.035 33.064V47.968C285.035 51.04 283.523 52.576 280.499 52.576ZM195.816 150.72C190.536 150.72 186 149.664 182.208 147.552C178.464 145.392 175.584 142.368 173.568 138.48C171.552 134.544 170.544 129.912 170.544 124.584C170.544 119.256 171.552 114.648 173.568 110.76C175.584 106.872 178.464 103.872 182.208 101.76C186 99.6 190.536 98.52 195.816 98.52C198.456 98.52 201.048 98.856 203.592 99.528C206.136 100.2 208.368 101.16 210.288 102.408C211.536 103.224 212.28 104.208 212.52 105.36C212.76 106.464 212.616 107.496 212.088 108.456C211.56 109.368 210.768 109.992 209.712 110.328C208.656 110.616 207.48 110.328 206.184 109.464C204.696 108.504 203.088 107.808 201.36 107.376C199.632 106.944 197.88 106.728 196.104 106.728C190.968 106.728 187.056 108.288 184.368 111.408C181.68 114.48 180.336 118.872 180.336 124.584C180.336 130.296 181.68 134.712 184.368 137.832C187.056 140.952 190.968 142.512 196.104 142.512C197.928 142.512 199.728 142.296 201.504 141.864C203.28 141.384 204.96 140.664 206.544 139.704C207.84 138.888 208.992 138.624 210 138.912C211.008 139.2 211.752 139.8 212.232 140.712C212.76 141.576 212.928 142.536 212.736 143.592C212.544 144.648 211.896 145.584 210.792 146.4C208.872 147.792 206.568 148.872 203.88 149.64C201.24 150.36 198.552 150.72 195.816 150.72ZM232.299 150.72C228.651 150.72 225.483 149.976 222.795 148.488C220.107 147 218.019 144.888 216.531 142.152C215.043 139.368 214.299 136.104 214.299 132.36C214.299 128.616 215.043 125.376 216.531 122.64C218.019 119.904 220.107 117.792 222.795 116.304C225.483 114.816 228.651 114.072 232.299 114.072C235.947 114.072 239.115 114.816 241.803 116.304C244.491 117.792 246.579 119.904 248.067 122.64C249.555 125.376 250.299 128.616 250.299 132.36C250.299 136.104 249.555 139.368 248.067 142.152C246.579 144.888 244.491 147 241.803 148.488C239.115 149.976 235.947 150.72 232.299 150.72ZM232.299 143.88C234.987 143.88 237.147 142.92 238.779 141C240.411 139.032 241.227 136.152 241.227 132.36C241.227 128.52 240.411 125.664 238.779 123.792C237.147 121.872 234.987 120.912 232.299 120.912C229.611 120.912 227.451 121.872 225.819 123.792C224.187 125.664 223.371 128.52 223.371 132.36C223.371 136.152 224.187 139.032 225.819 141C227.451 142.92 229.611 143.88 232.299 143.88ZM262.787 150.576C259.763 150.576 258.251 149.04 258.251 145.968V121.56H254.939C252.539 121.56 251.339 120.432 251.339 118.176C251.339 115.92 252.539 114.792 254.939 114.792H258.251V114.72C258.251 109.776 259.499 106.08 261.995 103.632C264.491 101.136 268.091 99.672 272.795 99.24L275.243 99.024C276.491 98.928 277.403 99.192 277.979 99.816C278.555 100.44 278.843 101.208 278.843 102.12C278.891 102.984 278.675 103.776 278.195 104.496C277.715 105.168 277.019 105.552 276.107 105.648L275.099 105.72C272.363 105.912 270.371 106.608 269.123 107.808C267.875 109.008 267.251 110.832 267.251 113.28V114.792H273.371C275.771 114.792 276.971 115.92 276.971 118.176C276.971 120.432 275.771 121.56 273.371 121.56H267.251V145.968C267.251 149.04 265.763 150.576 262.787 150.576ZM295.744 150.72C292.096 150.72 288.928 149.976 286.24 148.488C283.552 147 281.464 144.888 279.976 142.152C278.488 139.368 277.744 136.104 277.744 132.36C277.744 128.616 278.488 125.376 279.976 122.64C281.464 119.904 283.552 117.792 286.24 116.304C288.928 114.816 292.096 114.072 295.744 114.072C299.392 114.072 302.56 114.816 305.248 116.304C307.936 117.792 310.024 119.904 311.512 122.64C313 125.376 313.744 128.616 313.744 132.36C313.744 136.104 313 139.368 311.512 142.152C310.024 144.888 307.936 147 305.248 148.488C302.56 149.976 299.392 150.72 295.744 150.72ZM295.744 143.88C298.432 143.88 300.592 142.92 302.224 141C303.856 139.032 304.672 136.152 304.672 132.36C304.672 128.52 303.856 125.664 302.224 123.792C300.592 121.872 298.432 120.912 295.744 120.912C293.056 120.912 290.896 121.872 289.264 123.792C287.632 125.664 286.816 128.52 286.816 132.36C286.816 136.152 287.632 139.032 289.264 141C290.896 142.92 293.056 143.88 295.744 143.88ZM332.416 150.72C323.776 150.72 319.456 145.872 319.456 136.176V118.752C319.456 115.728 320.944 114.216 323.92 114.216C326.944 114.216 328.456 115.728 328.456 118.752V136.32C328.456 138.816 328.96 140.664 329.968 141.864C330.976 143.064 332.584 143.664 334.792 143.664C337.192 143.664 339.16 142.848 340.696 141.216C342.232 139.536 343 137.328 343 134.592V118.752C343 115.728 344.488 114.216 347.464 114.216C350.488 114.216 352 115.728 352 118.752V145.968C352 149.04 350.536 150.576 347.608 150.576C344.68 150.576 343.216 149.04 343.216 145.968V144.744C340.864 148.728 337.264 150.72 332.416 150.72ZM364.332 150.576C361.356 150.576 359.868 149.04 359.868 145.968V118.752C359.868 115.728 361.332 114.216 364.26 114.216C367.188 114.216 368.652 115.728 368.652 118.752V120.264C369.852 118.248 371.46 116.712 373.476 115.656C375.54 114.6 377.844 114.072 380.388 114.072C388.692 114.072 392.844 118.896 392.844 128.544V145.968C392.844 149.04 391.356 150.576 388.38 150.576C385.356 150.576 383.844 149.04 383.844 145.968V128.976C383.844 126.24 383.316 124.248 382.26 123C381.252 121.752 379.668 121.128 377.508 121.128C374.868 121.128 372.756 121.968 371.172 123.648C369.636 125.28 368.868 127.464 368.868 130.2V145.968C368.868 149.04 367.356 150.576 364.332 150.576ZM414.021 150.72C410.949 150.72 408.237 149.976 405.885 148.488C403.581 147 401.781 144.888 400.485 142.152C399.189 139.368 398.541 136.104 398.541 132.36C398.541 128.568 399.189 125.328 400.485 122.64C401.781 119.904 403.581 117.792 405.885 116.304C408.237 114.816 410.949 114.072 414.021 114.072C416.517 114.072 418.773 114.624 420.789 115.728C422.805 116.832 424.317 118.296 425.325 120.12V103.2C425.325 100.176 426.813 98.664 429.789 98.664C432.813 98.664 434.325 100.176 434.325 103.2V145.968C434.325 149.04 432.837 150.576 429.861 150.576C426.885 150.576 425.397 149.04 425.397 145.968V144.456C424.389 146.376 422.877 147.912 420.861 149.064C418.845 150.168 416.565 150.72 414.021 150.72ZM416.541 143.88C419.229 143.88 421.389 142.92 423.021 141C424.653 139.032 425.469 136.152 425.469 132.36C425.469 128.52 424.653 125.664 423.021 123.792C421.389 121.872 419.229 120.912 416.541 120.912C413.853 120.912 411.693 121.872 410.061 123.792C408.429 125.664 407.613 128.52 407.613 132.36C407.613 136.152 408.429 139.032 410.061 141C411.693 142.92 413.853 143.88 416.541 143.88ZM459.509 150.72C455.525 150.72 452.093 149.976 449.213 148.488C446.333 147 444.101 144.888 442.517 142.152C440.981 139.416 440.213 136.176 440.213 132.432C440.213 128.784 440.957 125.592 442.445 122.856C443.981 120.12 446.069 117.984 448.709 116.448C451.397 114.864 454.445 114.072 457.853 114.072C462.845 114.072 466.781 115.656 469.661 118.824C472.589 121.992 474.053 126.312 474.053 131.784C474.053 133.56 472.901 134.448 470.597 134.448H448.853C449.525 140.736 453.125 143.88 459.653 143.88C460.901 143.88 462.293 143.736 463.829 143.448C465.413 143.112 466.901 142.56 468.293 141.792C469.541 141.072 470.597 140.856 471.461 141.144C472.325 141.384 472.925 141.888 473.261 142.656C473.645 143.424 473.693 144.288 473.405 145.248C473.165 146.16 472.493 146.952 471.389 147.624C469.709 148.68 467.765 149.472 465.557 150C463.397 150.48 461.381 150.72 459.509 150.72ZM458.213 120.192C455.573 120.192 453.437 121.008 451.805 122.64C450.173 124.272 449.189 126.48 448.853 129.264H466.565C466.373 126.336 465.557 124.104 464.117 122.568C462.725 120.984 460.757 120.192 458.213 120.192ZM484.288 150.576C481.216 150.576 479.68 149.04 479.68 145.968V118.752C479.68 115.728 481.144 114.216 484.072 114.216C487 114.216 488.464 115.728 488.464 118.752V120.984C490.192 116.856 493.888 114.552 499.552 114.072C501.616 113.832 502.768 115.008 503.008 117.6C503.248 120.144 502 121.56 499.264 121.848L497.68 121.992C491.776 122.568 488.824 125.592 488.824 131.064V145.968C488.824 149.04 487.312 150.576 484.288 150.576Z" fill="#1211D7"/>
</svg>
