<svg width="23" height="23" viewBox="0 0 23 23" fill="none" xmlns="http://www.w3.org/2000/svg">
<path d="M11.5923 0.530731C12.3559 0.530731 12.975 1.14978 12.975 1.91342V10.2096H21.2711C22.0347 10.2096 22.6538 10.8286 22.6538 11.5922C22.6538 12.3559 22.0347 12.9749 21.2711 12.9749H12.975V21.2711C12.975 22.0347 12.3559 22.6537 11.5923 22.6537C10.8286 22.6537 10.2096 22.0347 10.2096 21.2711V12.9749H1.91345C1.14981 12.9749 0.530762 12.3559 0.530762 11.5922C0.530762 10.8286 1.14981 10.2096 1.91345 10.2096H10.2096V1.91342C10.2096 1.14978 10.8286 0.530731 11.5923 0.530731Z" fill="#7A4BEF"/>
</svg>
